<svg id="visual" viewBox="0 0 900 600" width="900" height="600" xmlns="http://www.w3.org/2000/svg" xmlns:xlink="http://www.w3.org/1999/xlink" version="1.1"><rect x="0" y="0" width="900" height="600" fill="#a5c9d3"></rect><path d="M377 0L338.5 14.3C300 28.7 223 57.3 214 85.8C205 114.3 264 142.7 276 171.2C288 199.7 253 228.3 270.3 257C287.7 285.7 357.3 314.3 336.3 343C315.3 371.7 203.7 400.3 165.8 428.8C128 457.3 164 485.7 163.5 514.2C163 542.7 126 571.3 107.5 585.7L89 600L0 600L0 585.7C0 571.3 0 542.7 0 514.2C0 485.7 0 457.3 0 428.8C0 400.3 0 371.7 0 343C0 314.3 0 285.7 0 257C0 228.3 0 199.7 0 171.2C0 142.7 0 114.3 0 85.8C0 57.3 0 28.7 0 14.3L0 0Z" fill="#b803b8" stroke-linecap="round" stroke-linejoin="miter"></path></svg>