<svg id="visual" viewBox="0 0 900 600" width="900" height="600" xmlns="http://www.w3.org/2000/svg" xmlns:xlink="http://www.w3.org/1999/xlink" version="1.1"><rect x="0" y="0" width="900" height="600" fill="#001220"></rect><defs><linearGradient id="grad1_0" x1="33.3%" y1="0%" x2="100%" y2="100%"><stop offset="20%" stop-color="#001220" stop-opacity="1"></stop><stop offset="80%" stop-color="#001220" stop-opacity="1"></stop></linearGradient></defs><defs><linearGradient id="grad2_0" x1="0%" y1="0%" x2="66.7%" y2="100%"><stop offset="20%" stop-color="#001220" stop-opacity="1"></stop><stop offset="80%" stop-color="#001220" stop-opacity="1"></stop></linearGradient></defs><g transform="translate(900, 0)"><path d="M0 486.7C-48 438.2 -96 389.6 -152.7 368.6C-209.4 347.6 -274.8 354.1 -328.8 328.8C-382.8 303.5 -425.3 246.4 -449.7 186.3C-474.1 126.2 -480.4 63.1 -486.7 0L0 0Z" fill="#9e3cfa"></path></g><g transform="translate(0, 600)"><path d="M0 -486.7C62.6 -479.8 125.1 -472.9 186.3 -449.7C247.4 -426.5 307.1 -387.2 333.8 -333.8C360.4 -280.4 354.2 -212.9 374.2 -155C394.2 -97 440.5 -48.5 486.7 0L0 0Z" fill="#9e3cfa"></path></g></svg>